<svg width="42" height="42" viewBox="0 0 42 42" fill="none" xmlns="http://www.w3.org/2000/svg">
<path fill-rule="evenodd" clip-rule="evenodd" d="M21.5089 29.8584C27.7813 26.1507 31 22.2168 31 17.9976C31 11.9955 24.2512 10.1081 21 14.0997C17.7488 10.1081 11 11.9955 11 17.9976C11 22.2168 14.2187 26.1507 20.4911 29.8584C20.805 30.044 21.195 30.044 21.5089 29.8584ZM21.911 16.41C23.6772 12.5079 29 13.5388 29 17.9976C29 21.2509 26.3835 24.5467 21 27.8312C15.6165 24.5467 13 21.2509 13 17.9976C13 13.5388 18.3228 12.5079 20.089 16.41C20.4436 17.1935 21.5564 17.1935 21.911 16.41Z" fill="black" fill-opacity="0.3"/>
</svg>
