<svg width="42" height="42" viewBox="0 0 42 42" fill="none" xmlns="http://www.w3.org/2000/svg">
<path fill-rule="evenodd" clip-rule="evenodd" d="M21 23.35C17.75 23.35 16 20.1754 16 16.625C16 13.15 18 11 21 11C24 11 26 13.15 26 16.625C26 20.1754 24.25 23.35 21 23.35ZM21 21.35C22.7395 21.35 24 19.5013 24 16.625C24 14.2462 22.878 13 21 13C19.122 13 18 14.2462 18 16.625C18 19.5013 19.2606 21.35 21 21.35ZM13.9401 30.9982C14.4914 31.0313 14.9652 30.6112 14.9982 30.0599C15.1136 28.1378 17.0413 27 21.0038 27C24.9644 27 26.8868 28.1363 27.0035 30.0606C27.0369 30.6118 27.511 31.0316 28.0622 30.9982C28.6135 30.9647 29.0333 30.4907 28.9998 29.9394C28.8047 26.7224 25.8907 25 21.0038 25C16.1148 25 13.1948 26.7235 13.0018 29.9401C12.9687 30.4914 13.3888 30.9651 13.9401 30.9982Z" fill="black" fill-opacity="0.3"/>
</svg>
