<svg width="24" height="24" viewBox="0 0 24 24" fill="none" xmlns="http://www.w3.org/2000/svg"> 
<path fill-rule="evenodd" clip-rule="evenodd" d="M10.25 17.75C11.9605 17.75 13.5373 17.1774 14.7991 16.2133L19.5429 20.9571C19.9334 21.3476 20.5666 21.3476 20.9571 20.9571C21.3476 20.5666 21.3476 19.9334 20.9571 19.5429L16.2133 14.7991C17.1774 13.5373 17.75 11.9605 17.75 10.25C17.75 6.10786 14.3921 2.75 10.25 2.75C6.10786 2.75 2.75 6.10786 2.75 10.25C2.75 14.3921 6.10786 17.75 10.25 17.75ZM15.75 10.25C15.75 13.2876 13.2876 15.75 10.25 15.75C7.21243 15.75 4.75 13.2876 4.75 10.25C4.75 7.21243 7.21243 4.75 10.25 4.75C13.2876 4.75 15.75 7.21243 15.75 10.25Z" fill="black" fill-opacity="0.3"/>
</svg>
