<svg width="42" height="42" viewBox="0 0 42 42" fill="none" xmlns="http://www.w3.org/2000/svg">
<path fill-rule="evenodd" clip-rule="evenodd" d="M29 15C30.1046 15 31 15.8954 31 17V21.1529C31 22.1306 30.2932 22.9649 29.3288 23.1257L19.0558 24.8378C18.0434 25.0066 17.0675 24.3815 16.7975 23.3913L14.2362 14H12C11.4477 14 11 13.5523 11 13C11 12.4477 11.4477 12 12 12H14.2362C15.1381 12 15.9284 12.6036 16.1657 13.4738L16.582 15H29ZM18 28C18 29.1046 17.1046 30 16 30C14.8954 30 14 29.1046 14 28C14 26.8954 14.8954 26 16 26C17.1046 26 18 26.8954 18 28ZM28 28C28 29.1046 27.1046 30 26 30C24.8954 30 24 29.1046 24 28C24 26.8954 24.8954 26 26 26C27.1046 26 28 26.8954 28 28ZM29 21.1529L18.727 22.865L17.1274 17H29V21.1529Z" fill="black" fill-opacity="0.3"/>
</svg>
